REM GENRE "Black Metal"
REM DATE 2010
REM DISCID 7907C509
REM COMMENT "ExactAudioCopy v0.99pb5"
PERFORMER "Besatt"
TITLE "Demonicon"
FILE "Besatt - Demonicon.ape" WAVE
  TRACK 01 AUDIO
    TITLE "Exordium"
    PERFORMER "Besatt"
    FLAGS DCP
    INDEX 01 00:00:00
  TRACK 02 AUDIO
    TITLE "The Leader Of Fallens (Azazel)"
    PERFORMER "Besatt"
    FLAGS DCP
    INDEX 01 00:35:03
  TRACK 03 AUDIO
    TITLE "The Ninth Spirit (Paimon)"
    PERFORMER "Besatt"
    FLAGS DCP
    INDEX 01 03:59:27
  TRACK 04 AUDIO
    TITLE "Holding The Seal (Forneus)"
    PERFORMER "Besatt"
    FLAGS DCP
    INDEX 01 08:05:53
  TRACK 05 AUDIO
    TITLE "Ruthless Warrior (Moloch)"
    PERFORMER "Besatt"
    FLAGS DCP
    INDEX 01 12:28:49
  TRACK 06 AUDIO
    TITLE "Born In Flames (Asmodeus)"
    PERFORMER "Besatt"
    FLAGS DCP
    INDEX 01 16:37:06
  TRACK 07 AUDIO
    TITLE "Demon Of Destruction (Agares)"
    PERFORMER "Besatt"
    FLAGS DCP
    INDEX 01 20:59:69
  TRACK 08 AUDIO
    TITLE "Master Of Ceremonies (Mephistopheles)"
    PERFORMER "Besatt"
    FLAGS DCP
    INDEX 01 26:11:18
  TRACK 09 AUDIO
    TITLE "Warden Of Hell (Belzebub)"
    PERFORMER "Besatt"
    FLAGS DCP
    INDEX 01 29:04:43
